<!-- <svg height="24" viewBox="-4 0 24 24" fill="none" xmlns="http://www.w3.org/2000/svg"> -->
<svg 
  height="250" 
  viewBox="-40 -40 207 250" 
  fill="none" 
  xmlns="http://www.w3.org/2000/svg">
  
  <!-- First Path -->
  <path 
    d="M204.371 108.201C193.17 95.281 179.648 84.5578 164.338 76.577C153.808 53.0083 130.358 36.5909 103.17 36.5909C75.9809 36.5909 52.6139 53.0083 42.0837 76.577C26.7745 84.5578 13.2518 95.281 2.05075 108.201C0.256764 49.8922 46.2596 2 103.17 2C160.155 2 206.09 49.8922 204.371 108.201Z" 
    stroke="white" 
    stroke-width="4"
    transform="scale(0.65)"
  />
  
  <!-- Second Path -->
  <path 
    d="M179.068 66.3665C180.04 64.6179 180.937 63.1757 181.608 61.9576C181.834 61.5018 182.053 61.046 182.279 60.7396C182.43 60.4332 182.58 60.2763 182.656 60.0521C182.95 59.5963 183.1 59.2152 183.251 58.9088C182.58 57.616 181.834 56.2485 181.088 54.881C181.088 54.7988 181.012 54.7241 180.937 54.6494C180.266 53.4388 179.595 52.2208 178.774 51.0027C178.254 50.0911 177.651 49.1794 177.131 48.3425C177.055 48.2603 176.98 48.1108 176.904 48.0361C176.603 47.5803 176.309 47.1244 175.932 46.5939C175.186 45.5328 174.44 44.4642 173.618 43.4778C172.706 42.2373 171.786 41.0791 170.874 39.9133C168.967 37.4922 166.94 35.1682 164.708 33.0534C163.706 32.1119 162.651 31.1031 161.663 30.0943C143.663 13.2211 119.618 2.87891 93.1752 2.87891C86.0822 2.87891 79.1399 3.64112 72.3409 5.08334V40.8923C78.9138 38.6878 85.9314 37.4698 93.1752 37.4698C113.263 37.4698 131.339 46.5192 143.588 60.6574C127.08 88.4033 95.5646 141.242 93.1752 143.91L24.838 29.8776L21.6269 33.0684C20.5792 34.137 19.539 35.2728 18.5666 36.4161C17.5942 37.4772 16.6219 38.5384 15.7249 39.6817C15.5063 39.9133 15.2801 40.1375 15.1294 40.4439C14.3832 41.3555 13.6369 42.3494 12.8153 43.3358C12.8153 43.3358 12.7399 43.4105 12.7399 43.4853C11.8429 44.6958 10.9459 45.9139 10.1243 47.1319C9.37809 48.193 8.63186 49.3363 7.961 50.3975C7.81024 50.5469 7.73486 50.7786 7.65949 50.928C6.83787 52.2208 6.01626 53.5883 5.27002 54.881C4.52379 56.1738 3.85293 57.5413 3.10669 58.9088C3.25744 59.2152 3.47604 59.5963 3.70217 60.0521C3.85293 60.2838 3.9283 60.4332 4.07906 60.7396C4.30519 61.046 4.52379 61.5018 4.74992 61.9576C5.27756 62.8693 5.87304 63.9304 6.5439 65.1485C6.84541 65.5296 7.06401 65.9107 7.29014 66.3665C7.50873 66.7401 7.73486 67.0465 7.961 67.4276C7.961 67.5098 8.03637 67.6593 8.11175 67.734C10.8027 72.3745 14.3832 78.532 18.5666 85.6758C38.6622 119.826 72.6499 176.909 86.9113 199.514C89.8435 204.162 96.5144 204.162 99.4466 199.514C113.731 176.894 147.771 119.751 167.867 85.6011C172.05 78.4498 176.516 70.8931 179.131 66.2526" 
    stroke="white" 
    stroke-width="4"
    transform="translate(0, 60) scale(0.7)"
  />
</svg>
