<svg width="44" height="24" viewBox="0 0 44 24" fill="none" xmlns="http://www.w3.org/2000/svg">
  <!-- First SVG's Path -->
  <path 
    d="M22.7156 12.0238C21.4577 10.5593 19.9415 9.3474 18.2213 8.44282C17.0382 5.775 14.4076 3.91414 11.355 3.91414C8.30235 3.91414 5.68046 5.775 4.50018 8.44282C2.78001 9.3474 1.26374 10.5621 0.00592134 12.0238C-0.1951 5.42178 4.96827 0 11.3579 0C17.7532 0 22.908 5.42178 22.7156 12.0238Z" 
    fill="url(#paint0_linear_1)" 
    transform="scale(0.65)"
  />

  <!-- Second SVG's Path -->
  <path 
    d="M16.0151 7.17285C14.6395 5.57331 12.6121 4.54811 10.3578 4.54811C9.54506 4.54811 8.75533 4.68595 8.02017 4.93579V0.880942C8.78405 0.717254 9.56229 0.631104 10.3578 0.631104C13.3243 0.631104 16.0237 1.80276 18.0454 3.71244C18.1574 3.82731 18.2751 3.93931 18.3871 4.04843C18.637 4.28679 18.8667 4.55098 19.0792 4.82379C19.1826 4.95589 19.2831 5.08799 19.3865 5.22871C19.4784 5.3407 19.5617 5.46131 19.6449 5.58193C19.688 5.64223 19.7196 5.69392 19.7541 5.74561C19.7627 5.75423 19.7713 5.77146 19.7799 5.78007C19.8373 5.87484 19.9063 5.97822 19.9637 6.0816C20.0556 6.21944 20.1303 6.35729 20.2078 6.49513C20.2164 6.50374 20.225 6.51236 20.225 6.52097C20.3083 6.67605 20.3916 6.83112 20.4691 6.97758C20.4519 7.01204 20.4347 7.05511 20.4031 7.1068C20.3945 7.13265 20.3772 7.14988 20.36 7.18434C20.3341 7.2188 20.3083 7.27049 20.2853 7.32218C20.2107 7.46002 20.1101 7.62371 20.001 7.82186C19.9752 7.86493 19.9895 7.9396 19.9895 7.9396C19.9895 7.9396 19.9177 7.96831 19.9091 7.97693C19.6162 8.50245 19.2142 9.19166 18.7432 9.99861C16.4832 13.8611 12.6638 20.331 11.0613 22.8926C10.7311 23.4181 9.98443 23.4181 9.65418 22.8926C8.05176 20.3339 4.2381 13.8697 1.98379 10.0044C1.5157 9.19453 1.11079 8.49671 0.809255 7.97406C0.80064 7.96544 0.792024 7.94821 0.792024 7.9396C0.766179 7.89652 0.740333 7.86206 0.71736 7.81899C0.691514 7.76729 0.665668 7.72422 0.634079 7.68114C0.559414 7.5433 0.490493 7.42269 0.433058 7.31931C0.407213 7.26762 0.381367 7.21593 0.358393 7.18147C0.341163 7.14701 0.332548 7.12978 0.315317 7.10393C0.289472 7.05224 0.263626 7.00916 0.249268 6.9747C0.332548 6.81963 0.407213 6.66456 0.493365 6.5181C0.576645 6.37165 0.66854 6.21657 0.760436 6.07012C0.769051 6.05289 0.777666 6.02704 0.794896 6.00981C0.869561 5.8892 0.952841 5.75997 1.03899 5.63936C1.13089 5.50152 1.2314 5.36368 1.33191 5.22583C1.33191 5.21722 1.34052 5.2086 1.34052 5.2086C1.43242 5.09661 1.5157 4.98461 1.59898 4.88123C1.61621 4.84677 1.64206 4.82092 1.66503 4.79508C1.76554 4.66585 1.87467 4.54524 1.98379 4.42463C2.09292 4.2954 2.21066 4.16617 2.3284 4.04556L2.69024 3.68373L10.3606 16.5949C10.6248 16.2963 14.1628 10.3145 16.0151 7.17285Z" 
    fill="url(#paint0_linear_2)" 
    transform="translate(0, 7) scale(0.7)"
  />

  <!-- Combined Definitions -->
  <defs>
    <linearGradient id="paint0_linear_1" x1="0.000177883" y1="6.01218" x2="22.7214" y2="6.01218" gradientUnits="userSpaceOnUse">
      <stop stop-color="#659E89" />
      <stop offset="0.3212" stop-color="#619B8A" />
      <stop offset="1" stop-color="#A1C181" />
    </linearGradient>
    <linearGradient id="paint0_linear_2" x1="3.45354" y1="16.7246" x2="17.2598" y2="2.91822" gradientUnits="userSpaceOnUse">
      <stop stop-color="#FE7F2D" />
      <stop offset="1" stop-color="#FCCA46" />
    </linearGradient>
  </defs>
</svg>
